<?xml version="1.0" encoding="utf-8" standalone="no"?>
<!DOCTYPE svg PUBLIC "-//W3C//DTD SVG 1.1//EN"
  "http://www.w3.org/Graphics/SVG/1.1/DTD/svg11.dtd">
<svg xmlns:xlink="http://www.w3.org/1999/xlink" width="334.8pt" height="110.88pt" viewBox="0 0 334.8 110.88" xmlns="http://www.w3.org/2000/svg" version="1.1">
 <metadata>
  <rdf:RDF xmlns:dc="http://purl.org/dc/elements/1.1/" xmlns:cc="http://creativecommons.org/ns#" xmlns:rdf="http://www.w3.org/1999/02/22-rdf-syntax-ns#">
   <cc:Work>
    <dc:type rdf:resource="http://purl.org/dc/dcmitype/StillImage"/>
    <dc:date>2025-06-27T11:18:00.458141</dc:date>
    <dc:format>image/svg+xml</dc:format>
    <dc:creator>
     <cc:Agent>
      <dc:title>Matplotlib v3.6.3, https://matplotlib.org/</dc:title>
     </cc:Agent>
    </dc:creator>
   </cc:Work>
  </rdf:RDF>
 </metadata>
 <defs>
  <style type="text/css">*{stroke-linejoin: round; stroke-linecap: butt}</style>
 </defs>
 <g id="figure_1">
  <g id="patch_1">
   <path d="M 0 110.88 
L 334.8 110.88 
L 334.8 0 
L 0 0 
z
" style="fill: #ffffff"/>
  </g>
  <g id="axes_1">
   <g id="line2d_1">
    <path d="M 15.218182 66.953285 
L 15.828129 52.182692 
L 16.438076 51.524606 
L 17.048023 54.569969 
L 17.65797 50.879833 
L 18.267918 49.166616 
L 18.877865 49.632803 
L 19.487812 57.528969 
L 20.097759 49.88789 
L 20.707706 45.872036 
L 21.317653 47.888256 
L 21.927601 48.78037 
L 22.537548 55.030254 
L 23.147495 37.884179 
L 23.757442 46.135255 
L 24.367389 37.12164 
L 24.977336 38.887161 
L 25.587284 40.182651 
L 26.197231 38.668237 
L 26.807178 41.631636 
L 28.027072 31.617877 
L 28.637019 43.031388 
L 29.246967 39.599992 
L 29.856914 31.57098 
L 30.466861 42.216453 
L 31.076808 30.039003 
L 31.686755 33.960205 
L 32.296702 39.841468 
L 32.90665 35.557012 
L 33.516597 35.353652 
L 34.126544 34.628799 
L 34.736491 33.300432 
L 35.346438 36.345312 
L 35.956385 26.511205 
L 36.566333 26.185821 
L 37.17628 26.234765 
L 37.786227 22.419167 
L 38.396174 22.495061 
L 39.006121 19.652131 
L 39.616069 22.315491 
L 40.226016 28.953117 
L 40.835963 26.66099 
L 41.44591 26.979887 
L 42.055857 28.335875 
L 42.665804 20.873415 
L 43.275752 23.702469 
L 43.885699 18.805905 
L 44.495646 18.539582 
L 45.105593 13.56029 
L 45.71554 30.734124 
L 46.325487 25.26344 
L 46.935435 25.420692 
L 47.545382 27.027763 
L 48.155329 30.791684 
L 48.765276 18.506945 
L 49.375223 20.965949 
L 49.98517 24.010033 
L 50.595118 20.965147 
L 51.205065 5.04 
L 51.815012 16.377921 
L 52.424959 20.047542 
L 53.034906 16.322355 
L 53.644853 21.302577 
L 54.254801 23.650271 
L 54.864748 19.998932 
L 55.474695 13.217204 
L 56.084642 14.995313 
L 56.694589 27.154648 
L 57.304536 22.450781 
L 57.914484 25.545751 
L 58.524431 17.471027 
L 59.134378 29.968077 
L 59.744325 15.426645 
L 60.354272 27.008693 
L 60.964219 17.330967 
L 61.574167 23.391336 
L 62.184114 22.377666 
L 62.794061 23.78367 
L 63.404008 27.747689 
L 64.013955 26.65048 
L 64.623902 25.788139 
L 65.23385 21.980419 
L 65.843797 30.485797 
L 66.453744 32.232581 
L 67.063691 18.012161 
L 67.673638 22.003872 
L 68.283585 36.205341 
L 68.893533 31.309393 
L 69.50348 30.517814 
L 70.113427 36.915317 
L 70.723374 36.257895 
L 71.333321 34.624189 
L 71.943268 35.797419 
L 72.553216 28.563838 
L 73.163163 37.157278 
L 73.77311 39.670549 
L 74.383057 40.833102 
L 74.993004 39.034556 
L 75.602951 30.873589 
L 76.212899 36.862474 
L 76.822846 44.83245 
L 77.432793 34.780491 
L 78.04274 49.951263 
L 78.652687 48.382338 
L 79.262634 51.946323 
L 79.872582 44.828524 
L 80.482529 41.320418 
L 81.092476 50.871311 
L 81.702423 47.693352 
L 82.31237 41.014937 
L 82.922317 49.49267 
L 84.142212 51.65599 
L 84.752159 55.933243 
L 85.362106 58.0841 
L 85.972053 61.893496 
L 86.582 58.608956 
L 87.191948 54.631474 
L 87.801895 54.197993 
L 88.411842 48.952955 
L 89.021789 58.208643 
L 89.631736 50.993394 
L 90.241683 64.352596 
L 90.851631 68.788191 
L 91.461578 60.799053 
L 92.071525 64.795303 
L 92.681472 60.65501 
L 93.291419 67.991143 
L 93.901366 67.517117 
L 94.511314 68.646777 
L 95.121261 75.363498 
L 96.341155 57.672923 
L 96.951102 71.062513 
L 97.561049 78.043771 
L 98.170997 70.169996 
L 98.780944 66.881217 
L 99.390891 73.766407 
L 100.000838 78.613235 
L 100.610785 91.788099 
L 101.220732 72.851314 
L 101.83068 75.898243 
L 102.440627 83.982318 
L 103.050574 75.916349 
L 103.660521 81.312548 
L 104.270468 80.403606 
L 104.880415 82.588604 
L 105.490363 85.781017 
L 106.10031 85.426069 
L 106.710257 80.954848 
L 107.320204 86.828983 
L 107.930151 84.803691 
L 108.540098 89.692364 
L 109.150046 90.012949 
L 109.759993 85.656918 
L 110.36994 87.380658 
L 110.979887 85.995314 
L 111.589834 87.266475 
L 112.199781 101.699967 
L 112.809729 85.740243 
L 113.419676 88.742328 
L 114.029623 97.22645 
L 114.63957 93.126387 
L 115.249517 85.734751 
L 115.859464 93.166494 
L 116.469412 91.244567 
L 117.079359 93.341309 
L 117.689306 100.576052 
L 118.9092 89.37989 
L 119.519147 105.84 
L 120.129095 96.012537 
L 120.739042 89.014486 
L 121.348989 99.785791 
L 121.958936 105.142808 
L 122.568883 94.128017 
L 123.17883 95.080122 
L 123.788778 92.279211 
L 125.008672 97.773579 
L 125.618619 82.801525 
L 126.228566 94.177915 
L 126.838513 96.336637 
L 127.448461 96.445345 
L 128.058408 99.659045 
L 128.668355 97.286732 
L 129.278302 99.047353 
L 129.888249 93.576286 
L 130.498196 95.521538 
L 131.108144 90.730334 
L 131.718091 90.539032 
L 132.328038 89.875385 
L 132.937985 96.359201 
L 133.547932 88.763719 
L 134.157879 93.735423 
L 134.767827 94.151572 
L 135.377774 93.497477 
L 135.987721 96.875331 
L 136.597668 92.318235 
L 137.207615 93.163204 
L 137.817562 88.545386 
L 138.42751 90.64735 
L 139.037457 86.631623 
L 139.647404 85.551677 
L 140.257351 91.157555 
L 140.867298 86.651938 
L 141.477245 86.238237 
L 142.087193 91.016539 
L 142.69714 83.787301 
L 143.307087 93.639108 
L 143.917034 82.004052 
L 144.526981 85.011401 
L 145.136928 87.207315 
L 145.746876 92.521639 
L 146.356823 90.175949 
L 146.96677 84.439882 
L 147.576717 91.079325 
L 148.796611 79.603213 
L 149.406559 88.465672 
L 150.016506 79.90059 
L 150.626453 68.462992 
L 151.2364 83.660071 
L 151.846347 81.178499 
L 153.066242 82.70697 
L 153.676189 67.873009 
L 154.286136 74.905182 
L 154.896083 76.776449 
L 155.50603 81.337075 
L 156.115977 74.107406 
L 156.725925 69.967062 
L 157.335872 75.781884 
L 157.945819 76.989394 
L 158.555766 68.352705 
L 159.165713 66.098886 
L 159.77566 75.89916 
L 160.385608 65.870415 
L 160.995555 62.931981 
L 161.605502 74.612109 
L 162.215449 72.523665 
L 162.825396 74.170026 
L 163.435343 63.692424 
L 164.045291 64.786839 
L 164.655238 71.060975 
L 165.265185 59.447826 
L 165.875132 72.760368 
L 166.485079 73.502517 
L 167.095026 64.805245 
L 167.704974 65.54683 
L 168.314921 56.493394 
L 168.924868 65.38343 
L 169.534815 60.208798 
L 170.144762 59.687984 
L 170.754709 56.019236 
L 171.364657 48.266993 
L 171.974604 58.63737 
L 172.584551 53.00567 
L 173.194498 62.779952 
L 173.804445 48.821728 
L 174.414392 48.338702 
L 175.02434 54.455746 
L 175.634287 53.765713 
L 176.244234 52.723836 
L 176.854181 48.027463 
L 177.464128 50.036724 
L 178.074075 49.248542 
L 178.684023 45.704311 
L 179.29397 55.902759 
L 179.903917 49.310833 
L 180.513864 48.630285 
L 181.123811 47.256446 
L 181.733758 50.955325 
L 182.343706 50.210169 
L 182.953653 56.031153 
L 183.5636 46.400349 
L 184.173547 47.9652 
L 184.783494 55.855218 
L 185.393441 49.15331 
L 186.003389 31.887563 
L 186.613336 49.391576 
L 187.223283 36.425941 
L 187.83323 49.261492 
L 188.443177 38.802108 
L 189.053124 39.858183 
L 189.663072 44.123954 
L 190.273019 43.980683 
L 190.882966 39.504965 
L 191.492913 47.064352 
L 192.10286 41.990576 
L 192.712807 47.831801 
L 193.322755 44.307965 
L 193.932702 33.020479 
L 194.542649 40.664343 
L 195.152596 45.370419 
L 195.762543 38.988755 
L 196.37249 35.590386 
L 196.982438 39.811775 
L 198.202332 32.08369 
L 198.812279 40.94893 
L 199.422226 37.001871 
L 200.032173 40.445885 
L 200.642121 41.991732 
L 201.252068 40.301306 
L 201.862015 35.562538 
L 202.471962 45.266456 
L 203.081909 34.064999 
L 203.691856 39.21543 
L 204.301804 35.775812 
L 204.911751 46.710976 
L 205.521698 36.487146 
L 206.131645 37.152844 
L 206.741592 36.240331 
L 207.351539 45.707164 
L 207.961487 38.476372 
L 208.571434 42.654719 
L 209.181381 28.875272 
L 209.791328 39.893577 
L 210.401275 36.342181 
L 211.011222 38.505975 
L 211.62117 43.327656 
L 212.231117 45.414741 
L 212.841064 45.17471 
L 213.451011 44.290815 
L 214.060958 38.517784 
L 214.670905 51.062405 
L 215.280853 47.707672 
L 215.8908 34.695528 
L 216.500747 44.693315 
L 217.110694 48.926318 
L 217.720641 39.199729 
L 218.330588 34.583174 
L 218.940536 51.345398 
L 219.550483 38.387012 
L 220.16043 48.534301 
L 220.770377 34.121862 
L 221.380324 37.92089 
L 221.990271 50.828826 
L 222.600219 47.376206 
L 223.210166 48.300294 
L 223.820113 55.167037 
L 224.43006 49.661158 
L 225.040007 53.835845 
L 225.649954 55.237478 
L 226.259902 47.671394 
L 226.869849 48.202225 
L 227.479796 43.255687 
L 228.089743 45.073549 
L 228.69969 53.718618 
L 229.309637 55.775364 
L 229.919585 54.82046 
L 230.529532 51.81965 
L 231.139479 45.26641 
L 231.749426 56.833241 
L 232.359373 55.872884 
L 232.96932 53.312313 
L 233.579268 52.280702 
L 234.189215 52.172174 
L 234.799162 50.862679 
L 236.019056 57.596979 
L 236.629003 53.337613 
L 237.238951 60.054468 
L 237.848898 56.446153 
L 238.458845 51.443509 
L 239.068792 62.439132 
L 239.678739 59.485303 
L 240.288686 54.314206 
L 240.898634 64.070347 
L 241.508581 65.473547 
L 242.118528 63.306612 
L 242.728475 73.593036 
L 243.338422 65.12928 
L 243.948369 58.941068 
L 244.558317 50.072048 
L 245.168264 61.389145 
L 245.778211 68.39866 
L 246.388158 67.334208 
L 246.998105 72.623856 
L 247.608052 69.194657 
L 248.218 69.352826 
L 248.827947 68.366048 
L 249.437894 63.273294 
L 250.657788 68.99903 
L 251.267735 77.716696 
L 251.877683 70.926208 
L 252.48763 68.747892 
L 253.097577 60.399918 
L 253.707524 83.006761 
L 254.317471 70.573964 
L 254.927418 71.872639 
L 255.537366 72.8804 
L 256.147313 74.385025 
L 256.75726 68.485881 
L 257.367207 75.170299 
L 257.977154 71.443805 
L 258.587101 76.194503 
L 259.197049 68.233665 
L 259.806996 67.186854 
L 260.416943 75.581345 
L 261.02689 76.413935 
L 261.636837 73.972387 
L 262.246784 76.983867 
L 262.856732 74.786777 
L 263.466679 71.644645 
L 264.076626 72.68599 
L 264.686573 78.89537 
L 265.29652 77.768182 
L 265.906467 81.332039 
L 267.126362 66.983246 
L 267.736309 83.470582 
L 268.346256 74.970662 
L 268.956203 79.274922 
L 269.56615 78.80856 
L 270.786045 80.528449 
L 271.395992 75.90047 
L 272.005939 81.295444 
L 272.615886 77.181791 
L 273.835781 79.896916 
L 274.445728 77.147084 
L 275.055675 81.531909 
L 275.665622 77.503232 
L 276.275569 83.402475 
L 276.885516 85.011651 
L 277.495464 77.662571 
L 278.105411 81.874871 
L 278.715358 70.042605 
L 279.325305 88.760355 
L 279.935252 82.295765 
L 280.545199 79.996656 
L 281.155147 78.794757 
L 281.765094 88.324025 
L 282.375041 75.163908 
L 282.984988 78.285472 
L 283.594935 79.940864 
L 284.204882 81.986857 
L 284.81483 88.580562 
L 285.424777 79.682859 
L 286.034724 78.145779 
L 286.644671 84.816087 
L 287.254618 67.540269 
L 287.864565 70.565276 
L 288.474513 69.353712 
L 289.08446 94.293211 
L 289.694407 80.136327 
L 290.304354 82.033069 
L 290.914301 88.953627 
L 291.524248 71.742072 
L 292.134196 81.154814 
L 292.744143 77.753566 
L 293.35409 73.009549 
L 293.964037 71.601335 
L 294.573984 79.387285 
L 295.183931 80.377629 
L 295.793879 82.573337 
L 296.403826 75.341974 
L 297.013773 84.232054 
L 297.62372 75.877234 
L 298.233667 74.506623 
L 298.843615 72.639093 
L 299.453562 72.720088 
L 300.063509 79.221141 
L 300.673456 73.684919 
L 301.283403 72.77762 
L 301.89335 82.612915 
L 302.503298 73.355709 
L 303.113245 78.011028 
L 303.723192 78.81561 
L 304.333139 63.895763 
L 304.943086 73.843722 
L 305.553033 76.639566 
L 306.162981 72.229504 
L 306.772928 62.564671 
L 307.382875 70.609817 
L 307.992822 74.192811 
L 308.602769 70.345696 
L 309.212716 67.409174 
L 309.822664 66.719496 
L 310.432611 57.281452 
L 311.652505 71.967704 
L 312.262452 72.770865 
L 312.872399 66.651338 
L 313.482347 65.104637 
L 314.092294 64.31552 
L 314.702241 63.916943 
L 315.312188 60.399936 
L 315.922135 67.28738 
L 316.532082 70.336629 
L 317.14203 59.473066 
L 317.751977 65.540309 
L 318.361924 57.189864 
L 318.971871 68.451481 
L 319.581818 57.574673 
L 319.581818 57.574673 
" clip-path="url(#p58c109af63)" style="fill: none; stroke: #65787c; stroke-width: 2; stroke-linecap: square"/>
   </g>
  </g>
 </g>
 <defs>
  <clipPath id="p58c109af63">
   <rect x="0" y="-0" width="334.8" height="110.88"/>
  </clipPath>
 </defs>
</svg>
