<?xml version="1.0" encoding="utf-8" standalone="no"?>
<!DOCTYPE svg PUBLIC "-//W3C//DTD SVG 1.1//EN"
  "http://www.w3.org/Graphics/SVG/1.1/DTD/svg11.dtd">
<svg xmlns:xlink="http://www.w3.org/1999/xlink" width="334.8pt" height="110.88pt" viewBox="0 0 334.8 110.88" xmlns="http://www.w3.org/2000/svg" version="1.1">
 <metadata>
  <rdf:RDF xmlns:dc="http://purl.org/dc/elements/1.1/" xmlns:cc="http://creativecommons.org/ns#" xmlns:rdf="http://www.w3.org/1999/02/22-rdf-syntax-ns#">
   <cc:Work>
    <dc:type rdf:resource="http://purl.org/dc/dcmitype/StillImage"/>
    <dc:date>2025-06-27T11:18:00.429892</dc:date>
    <dc:format>image/svg+xml</dc:format>
    <dc:creator>
     <cc:Agent>
      <dc:title>Matplotlib v3.6.3, https://matplotlib.org/</dc:title>
     </cc:Agent>
    </dc:creator>
   </cc:Work>
  </rdf:RDF>
 </metadata>
 <defs>
  <style type="text/css">*{stroke-linejoin: round; stroke-linecap: butt}</style>
 </defs>
 <g id="figure_1">
  <g id="patch_1">
   <path d="M 0 110.88 
L 334.8 110.88 
L 334.8 0 
L 0 0 
z
" style="fill: #ffffff"/>
  </g>
  <g id="axes_1">
   <g id="line2d_1">
    <path d="M 15.218182 58.462925 
L 15.828129 63.699554 
L 16.438076 64.674125 
L 17.048023 60.73843 
L 17.65797 59.733863 
L 18.267918 50.889386 
L 18.877865 56.590032 
L 19.487812 42.97705 
L 20.097759 47.64692 
L 20.707706 56.141943 
L 21.317653 54.576683 
L 21.927601 58.806303 
L 22.537548 50.146058 
L 23.147495 47.317924 
L 23.757442 49.505321 
L 24.367389 37.793358 
L 24.977336 42.077011 
L 25.587284 44.394879 
L 26.197231 42.957545 
L 26.807178 46.199511 
L 27.417125 38.776866 
L 28.027072 42.260322 
L 28.637019 40.081921 
L 29.246967 31.155169 
L 29.856914 33.33666 
L 30.466861 28.383189 
L 31.686755 26.470857 
L 32.296702 29.517563 
L 32.90665 26.669413 
L 33.516597 32.768274 
L 34.126544 23.262062 
L 34.736491 30.901715 
L 35.346438 25.999393 
L 35.956385 27.23612 
L 36.566333 27.931852 
L 37.17628 28.110061 
L 37.786227 24.441891 
L 38.396174 30.09059 
L 39.006121 18.85276 
L 39.616069 21.738826 
L 40.226016 20.459176 
L 40.835963 18.586974 
L 41.44591 26.058793 
L 42.055857 19.440294 
L 42.665804 22.749674 
L 43.275752 19.236002 
L 43.885699 21.359522 
L 44.495646 26.89121 
L 45.105593 5.04 
L 45.71554 14.530269 
L 46.325487 32.799844 
L 46.935435 7.776441 
L 47.545382 20.163162 
L 48.155329 24.499852 
L 48.765276 24.119107 
L 49.375223 7.297675 
L 49.98517 14.215796 
L 50.595118 18.698923 
L 51.205065 17.389333 
L 51.815012 25.551554 
L 52.424959 14.250476 
L 53.034906 12.75491 
L 54.254801 20.487893 
L 54.864748 20.926851 
L 55.474695 10.256206 
L 56.084642 25.594599 
L 56.694589 25.744945 
L 57.304536 15.772805 
L 58.524431 21.058475 
L 59.134378 25.397441 
L 59.744325 18.72976 
L 60.354272 22.617499 
L 60.964219 24.296975 
L 61.574167 21.456813 
L 62.184114 16.416695 
L 62.794061 13.317761 
L 63.404008 28.368562 
L 64.013955 22.769211 
L 64.623902 26.885226 
L 65.23385 25.892037 
L 65.843797 23.429012 
L 66.453744 27.870981 
L 67.063691 27.553863 
L 67.673638 25.721191 
L 68.283585 30.063375 
L 68.893533 28.700998 
L 69.50348 33.831507 
L 70.113427 30.676468 
L 70.723374 24.237359 
L 71.333321 31.068652 
L 71.943268 46.761438 
L 72.553216 39.735749 
L 73.163163 37.775156 
L 73.77311 32.499839 
L 74.383057 30.622639 
L 74.993004 34.197624 
L 75.602951 35.300494 
L 76.212899 37.17679 
L 76.822846 38.299556 
L 77.432793 50.873214 
L 78.04274 44.362188 
L 78.652687 48.86281 
L 79.262634 46.968887 
L 79.872582 40.963673 
L 80.482529 46.673446 
L 81.092476 50.973367 
L 81.702423 46.384893 
L 82.31237 54.620652 
L 82.922317 45.74758 
L 83.532265 45.991886 
L 84.142212 49.273324 
L 84.752159 43.558387 
L 85.362106 54.839604 
L 85.972053 54.547567 
L 86.582 53.344323 
L 87.191948 63.787968 
L 87.801895 56.532608 
L 88.411842 66.110677 
L 89.021789 55.605738 
L 89.631736 62.586214 
L 90.241683 63.224497 
L 90.851631 69.477799 
L 91.461578 62.971942 
L 92.071525 64.235065 
L 92.681472 72.629355 
L 93.291419 74.167522 
L 93.901366 73.885647 
L 94.511314 68.043181 
L 95.121261 81.54811 
L 95.731208 53.26861 
L 96.341155 76.658542 
L 96.951102 73.285371 
L 97.561049 84.033174 
L 98.170997 74.76271 
L 98.780944 76.144351 
L 99.390891 84.084695 
L 100.000838 68.294127 
L 100.610785 77.764906 
L 101.220732 90.816998 
L 101.83068 75.623922 
L 102.440627 90.26885 
L 103.050574 85.392837 
L 103.660521 86.23707 
L 104.270468 97.697415 
L 104.880415 78.811757 
L 105.490363 79.803955 
L 106.10031 83.379205 
L 106.710257 76.905312 
L 107.320204 82.487009 
L 107.930151 92.137266 
L 108.540098 91.342579 
L 109.150046 80.784572 
L 109.759993 86.891047 
L 110.36994 76.382499 
L 110.979887 87.034937 
L 111.589834 90.527723 
L 112.199781 96.207207 
L 112.809729 96.074506 
L 113.419676 89.834014 
L 114.029623 91.996216 
L 114.63957 87.191936 
L 115.249517 97.45581 
L 115.859464 87.445091 
L 116.469412 94.024465 
L 117.079359 89.851488 
L 117.689306 99.37244 
L 118.299253 96.971617 
L 118.9092 95.310248 
L 119.519147 81.941453 
L 120.129095 87.408588 
L 120.739042 96.763326 
L 121.348989 93.673849 
L 121.958936 105.84 
L 122.568883 103.452165 
L 123.17883 98.925042 
L 123.788778 98.993451 
L 124.398725 100.894723 
L 125.008672 92.757091 
L 125.618619 101.870107 
L 126.228566 99.112838 
L 126.838513 103.126037 
L 127.448461 91.447309 
L 128.058408 99.221368 
L 128.668355 102.722074 
L 129.888249 92.676862 
L 130.498196 98.700411 
L 131.108144 99.163469 
L 131.718091 92.22374 
L 132.328038 101.119066 
L 132.937985 93.996961 
L 133.547932 94.251992 
L 134.157879 95.41381 
L 134.767827 95.792745 
L 135.377774 92.692025 
L 135.987721 102.380964 
L 136.597668 98.079471 
L 137.207615 80.780212 
L 137.817562 96.822138 
L 138.42751 96.345618 
L 139.037457 100.12322 
L 139.647404 96.346566 
L 140.257351 86.240024 
L 140.867298 83.247238 
L 141.477245 91.128995 
L 142.087193 87.920714 
L 142.69714 97.314557 
L 143.307087 81.774058 
L 143.917034 92.57959 
L 144.526981 92.706465 
L 145.136928 89.831326 
L 145.746876 87.785398 
L 146.356823 91.764553 
L 146.96677 90.916801 
L 147.576717 87.731472 
L 148.186664 90.533697 
L 148.796611 81.270174 
L 149.406559 84.879583 
L 150.016506 79.990918 
L 150.626453 82.100445 
L 151.2364 80.149561 
L 151.846347 90.940105 
L 152.456294 79.675256 
L 153.066242 79.741513 
L 153.676189 76.271031 
L 154.286136 84.285093 
L 154.896083 76.772814 
L 155.50603 85.489775 
L 156.115977 83.275757 
L 156.725925 74.15263 
L 157.335872 74.707133 
L 157.945819 74.938605 
L 158.555766 72.432958 
L 159.165713 74.499136 
L 159.77566 74.631862 
L 160.385608 72.038052 
L 160.995555 71.845743 
L 161.605502 69.497734 
L 162.215449 64.387169 
L 162.825396 66.104995 
L 163.435343 71.665484 
L 164.045291 59.536164 
L 164.655238 64.461676 
L 165.265185 76.163255 
L 165.875132 62.001133 
L 166.485079 75.309101 
L 167.095026 62.596573 
L 167.704974 67.926086 
L 169.534815 53.332097 
L 170.754709 64.911179 
L 171.364657 57.539997 
L 171.974604 58.602976 
L 172.584551 50.159303 
L 173.194498 60.94039 
L 173.804445 58.405662 
L 174.414392 44.742086 
L 175.02434 56.534164 
L 175.634287 57.174585 
L 176.244234 52.666721 
L 176.854181 53.181441 
L 177.464128 52.26675 
L 178.074075 60.131367 
L 178.684023 55.993168 
L 179.29397 53.385853 
L 179.903917 56.799734 
L 180.513864 43.436561 
L 181.123811 55.228543 
L 181.733758 49.017752 
L 182.343706 50.137105 
L 182.953653 48.996583 
L 183.5636 39.936164 
L 184.173547 45.689534 
L 184.783494 54.185229 
L 185.393441 44.799423 
L 186.003389 39.674438 
L 186.613336 55.894422 
L 187.223283 37.319556 
L 187.83323 43.538502 
L 188.443177 45.924798 
L 189.053124 46.310314 
L 189.663072 38.034398 
L 190.273019 41.256208 
L 191.492913 38.690068 
L 192.10286 42.776952 
L 192.712807 42.114954 
L 193.322755 51.494546 
L 193.932702 48.794308 
L 194.542649 40.354335 
L 195.152596 34.630723 
L 195.762543 40.522135 
L 196.37249 38.682572 
L 196.982438 44.577773 
L 197.592385 42.932893 
L 198.202332 42.421346 
L 198.812279 41.341871 
L 199.422226 48.501784 
L 200.032173 34.67966 
L 200.642121 37.186539 
L 201.252068 33.261331 
L 201.862015 42.021421 
L 202.471962 34.645119 
L 203.081909 35.843477 
L 203.691856 41.837151 
L 204.301804 45.387094 
L 204.911751 51.079905 
L 205.521698 42.593077 
L 206.131645 41.975559 
L 206.741592 46.833465 
L 207.351539 42.233024 
L 207.961487 42.971813 
L 208.571434 44.608307 
L 209.181381 45.670213 
L 209.791328 36.728809 
L 210.401275 43.403834 
L 211.011222 30.43495 
L 211.62117 44.489536 
L 212.231117 44.944852 
L 212.841064 43.789042 
L 213.451011 54.826402 
L 214.670905 31.648275 
L 215.280853 41.549082 
L 215.8908 48.620581 
L 216.500747 39.709768 
L 217.110694 38.978527 
L 218.330588 48.303599 
L 218.940536 42.780031 
L 219.550483 50.05562 
L 220.16043 45.30104 
L 220.770377 46.86183 
L 221.380324 49.767366 
L 221.990271 50.169112 
L 222.600219 46.602557 
L 223.210166 54.492402 
L 223.820113 44.488702 
L 224.43006 47.597768 
L 225.040007 49.858397 
L 225.649954 51.579575 
L 226.259902 45.038098 
L 226.869849 54.399284 
L 227.479796 52.008273 
L 228.089743 58.278169 
L 228.69969 46.43876 
L 229.309637 49.277427 
L 229.919585 67.114254 
L 230.529532 54.044331 
L 231.139479 52.412628 
L 231.749426 57.694558 
L 232.359373 42.902947 
L 232.96932 56.110115 
L 233.579268 52.587089 
L 234.189215 61.432998 
L 234.799162 51.743514 
L 235.409109 50.238204 
L 236.019056 51.56788 
L 236.629003 57.740065 
L 237.238951 66.85431 
L 237.848898 59.150098 
L 238.458845 66.96051 
L 239.068792 52.935084 
L 239.678739 62.635477 
L 240.288686 62.901937 
L 240.898634 52.561906 
L 241.508581 63.212333 
L 242.118528 59.83235 
L 242.728475 55.426185 
L 243.338422 69.955521 
L 243.948369 55.899146 
L 244.558317 71.034843 
L 245.168264 65.875765 
L 245.778211 65.456654 
L 246.388158 63.65641 
L 246.998105 59.646308 
L 247.608052 72.004983 
L 248.218 75.425123 
L 248.827947 68.941951 
L 249.437894 80.975969 
L 250.047841 71.903154 
L 250.657788 75.313904 
L 251.267735 75.449217 
L 251.877683 74.383104 
L 252.48763 73.774527 
L 253.097577 60.781036 
L 253.707524 73.606824 
L 254.317471 73.527569 
L 254.927418 80.359968 
L 255.537366 69.180593 
L 256.147313 66.099407 
L 256.75726 77.091633 
L 257.367207 83.203785 
L 257.977154 73.459894 
L 258.587101 82.421825 
L 259.197049 77.360273 
L 259.806996 74.347669 
L 260.416943 73.768838 
L 261.02689 85.586463 
L 261.636837 83.043126 
L 262.246784 85.733222 
L 262.856732 68.41911 
L 263.466679 72.795636 
L 264.076626 81.481966 
L 264.686573 71.570152 
L 265.29652 78.494984 
L 265.906467 77.130627 
L 266.516415 77.690104 
L 267.126362 89.184393 
L 267.736309 85.942733 
L 268.346256 83.775984 
L 268.956203 86.043866 
L 269.56615 79.306031 
L 270.176098 75.540698 
L 270.786045 70.460029 
L 272.005939 87.465441 
L 272.615886 80.720843 
L 273.225833 84.3204 
L 273.835781 99.901062 
L 274.445728 77.060097 
L 275.055675 81.708076 
L 275.665622 73.442343 
L 276.275569 76.669717 
L 276.885516 91.946436 
L 277.495464 88.750385 
L 278.105411 76.963087 
L 278.715358 79.271057 
L 279.325305 80.29289 
L 279.935252 91.137722 
L 280.545199 81.445185 
L 281.155147 87.233605 
L 281.765094 79.21452 
L 282.375041 76.305139 
L 282.984988 81.143658 
L 283.594935 83.833211 
L 284.204882 76.311485 
L 284.81483 76.961254 
L 285.424777 84.77802 
L 286.034724 86.04675 
L 286.644671 80.469183 
L 287.254618 81.299513 
L 287.864565 80.499073 
L 288.474513 82.294446 
L 289.08446 84.946394 
L 289.694407 78.958834 
L 290.304354 89.130141 
L 290.914301 93.403793 
L 291.524248 75.845254 
L 292.134196 77.758616 
L 292.744143 80.283196 
L 293.35409 75.683992 
L 293.964037 73.49632 
L 294.573984 75.241241 
L 295.183931 69.366946 
L 295.793879 77.935658 
L 296.403826 70.168339 
L 297.013773 83.902671 
L 298.233667 73.460272 
L 298.843615 75.723286 
L 299.453562 68.30879 
L 300.063509 68.687501 
L 300.673456 82.977583 
L 301.283403 80.169963 
L 301.89335 72.332712 
L 302.503298 75.963797 
L 303.113245 76.622635 
L 303.723192 83.350276 
L 304.333139 69.443168 
L 304.943086 69.811639 
L 305.553033 75.130959 
L 306.162981 62.074115 
L 307.382875 79.372587 
L 308.602769 72.82498 
L 309.212716 78.787743 
L 309.822664 78.253236 
L 310.432611 61.989229 
L 311.042558 72.613882 
L 311.652505 79.299343 
L 312.262452 67.754819 
L 312.872399 66.811089 
L 313.482347 68.863296 
L 314.092294 61.447847 
L 314.702241 72.004092 
L 315.312188 71.646067 
L 315.922135 62.480075 
L 316.532082 70.28617 
L 317.14203 62.293451 
L 317.751977 68.020498 
L 318.361924 64.373846 
L 318.971871 61.499038 
L 319.581818 71.444145 
L 319.581818 71.444145 
" clip-path="url(#p775e2f1516)" style="fill: none; stroke: #859193; stroke-width: 2; stroke-linecap: square"/>
   </g>
  </g>
 </g>
 <defs>
  <clipPath id="p775e2f1516">
   <rect x="0" y="-0" width="334.8" height="110.88"/>
  </clipPath>
 </defs>
</svg>
