<?xml version="1.0" encoding="utf-8" standalone="no"?>
<!DOCTYPE svg PUBLIC "-//W3C//DTD SVG 1.1//EN"
  "http://www.w3.org/Graphics/SVG/1.1/DTD/svg11.dtd">
<svg xmlns:xlink="http://www.w3.org/1999/xlink" width="334.8pt" height="110.88pt" viewBox="0 0 334.8 110.88" xmlns="http://www.w3.org/2000/svg" version="1.1">
 <metadata>
  <rdf:RDF xmlns:dc="http://purl.org/dc/elements/1.1/" xmlns:cc="http://creativecommons.org/ns#" xmlns:rdf="http://www.w3.org/1999/02/22-rdf-syntax-ns#">
   <cc:Work>
    <dc:type rdf:resource="http://purl.org/dc/dcmitype/StillImage"/>
    <dc:date>2025-06-27T11:18:00.399071</dc:date>
    <dc:format>image/svg+xml</dc:format>
    <dc:creator>
     <cc:Agent>
      <dc:title>Matplotlib v3.6.3, https://matplotlib.org/</dc:title>
     </cc:Agent>
    </dc:creator>
   </cc:Work>
  </rdf:RDF>
 </metadata>
 <defs>
  <style type="text/css">*{stroke-linejoin: round; stroke-linecap: butt}</style>
 </defs>
 <g id="figure_1">
  <g id="patch_1">
   <path d="M 0 110.88 
L 334.8 110.88 
L 334.8 0 
L 0 0 
z
" style="fill: #ffffff"/>
  </g>
  <g id="axes_1">
   <g id="line2d_1">
    <path d="M 15.218182 61.825463 
L 15.828129 66.486077 
L 16.438076 58.725408 
L 17.048023 55.409726 
L 17.65797 62.378947 
L 18.267918 48.096777 
L 18.877865 47.423709 
L 19.487812 55.471 
L 20.097759 45.861421 
L 20.707706 39.121068 
L 21.317653 37.707108 
L 21.927601 46.116104 
L 22.537548 38.129941 
L 23.147495 37.667056 
L 23.757442 33.983362 
L 24.367389 33.376189 
L 24.977336 41.1773 
L 25.587284 36.843204 
L 26.197231 40.6096 
L 26.807178 43.632259 
L 27.417125 33.898561 
L 28.027072 34.860889 
L 28.637019 29.843938 
L 29.246967 30.587169 
L 29.856914 31.12998 
L 30.466861 27.378875 
L 31.076808 41.583664 
L 31.686755 26.345586 
L 32.296702 29.906262 
L 32.90665 29.565948 
L 33.516597 23.23057 
L 34.126544 33.068177 
L 34.736491 32.604013 
L 35.346438 28.548912 
L 35.956385 20.515777 
L 36.566333 19.233804 
L 37.17628 25.152458 
L 37.786227 15.055634 
L 38.396174 23.581941 
L 39.006121 29.468031 
L 39.616069 18.448348 
L 40.226016 17.263875 
L 40.835963 11.086717 
L 41.44591 8.164264 
L 42.055857 16.711029 
L 42.665804 16.592322 
L 43.275752 6.480292 
L 43.885699 19.431711 
L 45.105593 7.560241 
L 45.71554 14.222325 
L 46.325487 7.692549 
L 46.935435 9.924512 
L 47.545382 28.894944 
L 48.155329 14.160891 
L 48.765276 5.04 
L 49.375223 11.81441 
L 49.98517 9.168654 
L 50.595118 12.43148 
L 51.205065 9.81489 
L 51.815012 14.588889 
L 52.424959 15.184491 
L 53.034906 8.686343 
L 53.644853 12.35724 
L 54.254801 10.55454 
L 54.864748 17.264927 
L 55.474695 21.821933 
L 56.084642 18.078419 
L 56.694589 18.191588 
L 57.304536 12.157101 
L 57.914484 9.724435 
L 58.524431 24.728594 
L 59.134378 27.615981 
L 59.744325 13.248959 
L 60.354272 14.217077 
L 60.964219 17.054799 
L 61.574167 12.609758 
L 62.184114 16.815176 
L 62.794061 19.774066 
L 63.404008 24.345248 
L 64.013955 24.9451 
L 64.623902 34.377924 
L 65.23385 16.407333 
L 65.843797 26.659708 
L 66.453744 29.051955 
L 67.063691 23.607776 
L 67.673638 29.798969 
L 68.283585 12.529577 
L 68.893533 27.192099 
L 69.50348 20.499034 
L 70.113427 27.103988 
L 70.723374 14.676686 
L 71.333321 29.73725 
L 71.943268 35.589999 
L 72.553216 32.912483 
L 73.163163 32.147973 
L 73.77311 32.994917 
L 74.383057 37.820386 
L 75.602951 33.374076 
L 76.212899 29.728878 
L 76.822846 44.119099 
L 77.432793 39.571412 
L 78.04274 36.395399 
L 78.652687 37.364978 
L 79.262634 47.79733 
L 79.872582 39.632538 
L 80.482529 37.208395 
L 81.092476 43.591213 
L 81.702423 41.777605 
L 82.31237 37.011448 
L 82.922317 40.7329 
L 83.532265 51.05011 
L 84.142212 57.827456 
L 84.752159 48.404571 
L 85.362106 44.81027 
L 85.972053 51.946133 
L 86.582 48.655169 
L 87.191948 55.061817 
L 87.801895 59.312073 
L 88.411842 57.958645 
L 89.021789 51.457723 
L 89.631736 63.432207 
L 90.241683 65.912531 
L 90.851631 55.588355 
L 91.461578 56.675859 
L 92.071525 51.988024 
L 92.681472 65.27127 
L 93.291419 64.469876 
L 93.901366 76.283658 
L 94.511314 64.008586 
L 95.121261 59.543266 
L 95.731208 70.74498 
L 96.341155 67.668751 
L 96.951102 69.943407 
L 97.561049 70.675588 
L 98.170997 77.597422 
L 98.780944 68.572225 
L 99.390891 90.834328 
L 100.000838 76.28633 
L 100.610785 85.922057 
L 101.83068 65.441492 
L 102.440627 86.626752 
L 103.050574 78.167318 
L 103.660521 86.15086 
L 104.270468 77.581866 
L 104.880415 78.423631 
L 105.490363 82.204569 
L 106.10031 85.025901 
L 106.710257 83.674869 
L 107.320204 87.768819 
L 107.930151 80.435708 
L 108.540098 90.076023 
L 109.150046 84.194716 
L 109.759993 84.707371 
L 110.36994 95.896368 
L 110.979887 90.804455 
L 111.589834 91.487263 
L 112.199781 85.2971 
L 112.809729 95.465312 
L 113.419676 89.890355 
L 114.029623 99.767878 
L 114.63957 87.392704 
L 115.249517 92.754394 
L 115.859464 89.691358 
L 116.469412 94.404721 
L 117.079359 88.1099 
L 117.689306 102.221223 
L 118.299253 102.159503 
L 118.9092 105.165952 
L 119.519147 94.718205 
L 120.129095 88.561678 
L 120.739042 88.887748 
L 121.348989 103.502847 
L 121.958936 100.436288 
L 122.568883 100.219664 
L 123.17883 99.07343 
L 123.788778 98.272702 
L 124.398725 93.976526 
L 125.008672 96.980046 
L 125.618619 98.51536 
L 126.228566 104.556663 
L 126.838513 99.729561 
L 127.448461 95.898512 
L 128.058408 99.523107 
L 128.668355 91.872607 
L 129.278302 97.1692 
L 129.888249 91.906348 
L 130.498196 94.283316 
L 131.108144 89.890083 
L 131.718091 90.601666 
L 132.328038 89.449238 
L 132.937985 94.890767 
L 133.547932 92.58611 
L 134.157879 96.326504 
L 134.767827 90.365369 
L 136.597668 105.84 
L 137.207615 90.766108 
L 137.817562 90.845189 
L 138.42751 89.362668 
L 139.037457 90.270457 
L 139.647404 92.403558 
L 140.257351 96.311666 
L 140.867298 87.478371 
L 141.477245 93.748042 
L 142.087193 83.009435 
L 142.69714 92.891289 
L 143.307087 97.569477 
L 143.917034 90.182532 
L 144.526981 85.167877 
L 145.136928 84.915829 
L 145.746876 90.892555 
L 146.356823 84.389819 
L 146.96677 84.247412 
L 147.576717 91.022932 
L 148.186664 83.822743 
L 148.796611 78.346786 
L 149.406559 81.535156 
L 150.016506 89.520706 
L 150.626453 77.198706 
L 151.2364 84.291008 
L 151.846347 93.200717 
L 153.066242 69.058006 
L 153.676189 80.481532 
L 154.286136 77.810344 
L 154.896083 76.012303 
L 155.50603 75.294702 
L 156.115977 68.058947 
L 156.725925 75.978278 
L 157.335872 70.759114 
L 157.945819 71.891321 
L 158.555766 70.123897 
L 159.165713 65.111079 
L 159.77566 71.145498 
L 160.385608 72.659657 
L 160.995555 59.673904 
L 161.605502 61.872433 
L 162.215449 69.520806 
L 162.825396 63.342496 
L 163.435343 72.784578 
L 164.045291 72.861048 
L 164.655238 59.21096 
L 165.265185 63.333577 
L 165.875132 58.042996 
L 166.485079 65.829502 
L 167.095026 71.682273 
L 167.704974 67.945048 
L 168.314921 57.098991 
L 168.924868 63.441668 
L 170.144762 61.644121 
L 170.754709 58.792492 
L 171.364657 52.294001 
L 171.974604 60.130441 
L 172.584551 52.026551 
L 173.194498 50.912541 
L 173.804445 48.382127 
L 174.414392 55.808629 
L 175.02434 54.598325 
L 175.634287 50.266074 
L 176.244234 54.621951 
L 176.854181 60.560946 
L 177.464128 47.677829 
L 178.074075 46.157386 
L 178.684023 46.396266 
L 179.29397 42.031206 
L 179.903917 53.364735 
L 181.123811 43.796681 
L 181.733758 55.256459 
L 182.343706 44.967971 
L 182.953653 53.637165 
L 183.5636 41.525797 
L 184.173547 40.792424 
L 184.783494 44.864902 
L 185.393441 40.444847 
L 186.003389 41.443557 
L 186.613336 37.180996 
L 187.223283 39.415604 
L 187.83323 27.805439 
L 188.443177 44.777493 
L 189.053124 39.773458 
L 189.663072 45.195983 
L 190.273019 43.181306 
L 190.882966 37.921345 
L 191.492913 33.935679 
L 192.10286 31.470398 
L 192.712807 30.926096 
L 193.322755 39.961295 
L 193.932702 36.6178 
L 194.542649 38.019939 
L 195.152596 34.252687 
L 195.762543 39.592716 
L 196.982438 37.520866 
L 197.592385 37.03636 
L 198.202332 41.725661 
L 198.812279 36.820251 
L 199.422226 35.662242 
L 200.032173 18.289986 
L 200.642121 45.183342 
L 201.252068 32.232849 
L 201.862015 33.31926 
L 202.471962 26.843711 
L 203.081909 36.917147 
L 203.691856 34.537247 
L 204.301804 19.413021 
L 204.911751 32.066957 
L 205.521698 40.069946 
L 206.131645 37.952699 
L 206.741592 38.614486 
L 207.351539 42.532161 
L 207.961487 40.609308 
L 208.571434 15.778781 
L 209.181381 32.01862 
L 209.791328 30.967768 
L 210.401275 48.091388 
L 211.011222 39.802668 
L 211.62117 36.357908 
L 212.231117 39.239992 
L 212.841064 40.271182 
L 213.451011 40.004159 
L 214.060958 36.054852 
L 214.670905 34.879678 
L 215.280853 31.113842 
L 215.8908 41.291068 
L 216.500747 32.404766 
L 217.110694 37.789931 
L 217.720641 46.989542 
L 218.330588 44.214306 
L 218.940536 42.100645 
L 219.550483 39.453249 
L 220.16043 41.72905 
L 220.770377 50.264984 
L 221.380324 35.93063 
L 221.990271 44.761065 
L 222.600219 37.596152 
L 223.210166 44.165533 
L 223.820113 57.369167 
L 224.43006 37.342159 
L 225.040007 43.816288 
L 225.649954 41.567259 
L 226.259902 45.787573 
L 226.869849 44.574915 
L 227.479796 49.339999 
L 228.089743 46.808827 
L 228.69969 42.284924 
L 229.309637 49.503501 
L 229.919585 48.196197 
L 230.529532 45.955714 
L 231.139479 49.750268 
L 231.749426 63.329825 
L 232.359373 51.6365 
L 232.96932 49.211338 
L 233.579268 62.588352 
L 234.189215 48.74574 
L 234.799162 52.256677 
L 236.019056 55.692293 
L 236.629003 50.595145 
L 237.238951 65.574565 
L 238.458845 49.096038 
L 239.068792 53.447906 
L 239.678739 51.214069 
L 240.288686 54.943806 
L 240.898634 62.399463 
L 241.508581 63.099666 
L 242.118528 60.092895 
L 242.728475 62.660382 
L 243.338422 63.684281 
L 243.948369 55.152472 
L 244.558317 75.609061 
L 245.168264 57.975681 
L 245.778211 69.120249 
L 246.388158 55.32157 
L 246.998105 71.688151 
L 247.608052 64.796502 
L 248.218 66.056365 
L 248.827947 73.640781 
L 249.437894 66.230005 
L 250.657788 78.66233 
L 251.267735 70.842558 
L 252.48763 73.048173 
L 253.097577 62.815517 
L 253.707524 71.726264 
L 254.317471 68.613145 
L 254.927418 73.46067 
L 255.537366 71.336539 
L 256.147313 59.960848 
L 256.75726 76.400477 
L 257.367207 71.698748 
L 257.977154 70.475665 
L 258.587101 70.782717 
L 259.197049 73.271855 
L 259.806996 73.169929 
L 260.416943 70.700977 
L 261.02689 65.243423 
L 261.636837 78.350906 
L 262.246784 74.574242 
L 262.856732 80.223983 
L 263.466679 79.284397 
L 264.076626 75.177551 
L 264.686573 75.324619 
L 265.29652 71.66841 
L 265.906467 77.159204 
L 266.516415 68.534615 
L 267.126362 82.176571 
L 267.736309 77.682713 
L 268.346256 70.831827 
L 268.956203 80.446688 
L 269.56615 67.072959 
L 270.176098 87.489209 
L 270.786045 87.886005 
L 271.395992 83.133602 
L 272.005939 76.013997 
L 272.615886 72.316969 
L 273.225833 72.654502 
L 273.835781 77.146243 
L 274.445728 83.769284 
L 275.055675 83.246466 
L 275.665622 83.701451 
L 276.275569 81.129202 
L 276.885516 79.945711 
L 277.495464 82.795668 
L 278.105411 81.214893 
L 278.715358 76.695316 
L 279.325305 76.428144 
L 280.545199 85.595149 
L 281.155147 88.707829 
L 281.765094 76.150275 
L 282.375041 81.282198 
L 282.984988 78.47236 
L 283.594935 69.759716 
L 284.204882 76.91576 
L 284.81483 77.124072 
L 285.424777 83.982199 
L 286.034724 80.616496 
L 286.644671 78.343916 
L 287.254618 74.387637 
L 287.864565 82.352035 
L 288.474513 80.50307 
L 289.08446 70.961188 
L 289.694407 69.43424 
L 290.304354 73.09829 
L 290.914301 72.815871 
L 291.524248 82.517543 
L 292.134196 72.923704 
L 292.744143 72.691014 
L 293.35409 90.138223 
L 293.964037 76.514339 
L 294.573984 69.634428 
L 295.183931 81.476419 
L 295.793879 78.776557 
L 296.403826 74.219385 
L 297.013773 77.696084 
L 297.62372 75.082954 
L 298.233667 70.716102 
L 298.843615 75.729816 
L 299.453562 84.942235 
L 300.063509 78.021076 
L 300.673456 73.103076 
L 301.283403 72.29342 
L 301.89335 75.898424 
L 302.503298 78.730909 
L 303.113245 76.907102 
L 303.723192 72.955091 
L 304.333139 75.748434 
L 304.943086 57.770773 
L 305.553033 78.363034 
L 306.162981 63.406859 
L 306.772928 67.986508 
L 307.382875 65.903208 
L 307.992822 61.82957 
L 308.602769 68.122084 
L 309.212716 66.802037 
L 309.822664 60.670007 
L 311.042558 74.959747 
L 311.652505 68.930633 
L 312.262452 66.456967 
L 312.872399 67.22079 
L 313.482347 74.598297 
L 314.092294 78.77061 
L 314.702241 59.040827 
L 315.312188 64.166998 
L 315.922135 57.227474 
L 316.532082 65.3023 
L 317.14203 56.353747 
L 317.751977 63.542552 
L 318.361924 56.788623 
L 318.971871 61.325638 
L 319.581818 57.413089 
L 319.581818 57.413089 
" clip-path="url(#p4070a0fcc3)" style="fill: none; stroke: #a3aaab; stroke-width: 2; stroke-linecap: square"/>
   </g>
  </g>
 </g>
 <defs>
  <clipPath id="p4070a0fcc3">
   <rect x="0" y="-0" width="334.8" height="110.88"/>
  </clipPath>
 </defs>
</svg>
