<svg xmlns="http://www.w3.org/2000/svg" version="1.1" id="Layer_1" x="0px" y="0px" width="100%" viewBox="0 0 265 212" enable-background="new 0 0 265 212" xml:space="preserve">
<path fill="#3CC9E0" opacity="1.000000" stroke="none" d=" M263.856384,174.987976   C262.724030,183.377182 258.017517,189.182602 250.603561,192.842377   C248.456238,193.902359 246.008621,194.784912 243.654404,194.908966   C238.004395,195.206680 232.326523,195.091339 226.662872,194.984894   C219.814774,194.856216 216.094986,191.596619 216.057129,185.181961   C215.929306,163.519409 215.951141,141.855453 216.041595,120.192551   C216.061859,115.339951 219.439804,112.173401 224.227798,112.020126   C226.881531,111.935181 229.540192,112.004883 233.188171,112.004883   C231.688522,82.834366 220.015320,58.876984 197.876144,40.816124   C164.265884,13.397292 121.348930,10.170895 83.570015,33.015152   C54.481541,50.604450 40.084972,77.840683 36.396732,112.029968   C40.368443,112.029968 43.456036,111.870819 46.521049,112.066086   C51.514374,112.384209 54.871960,115.628334 54.903782,120.679962   C55.040226,142.342331 55.065933,164.006302 54.944431,185.668640   C54.917320,190.502350 51.645718,194.211151 46.168194,194.688766   C39.241932,195.292648 32.057983,195.690002 25.271099,194.519119   C14.238147,192.615723 7.219285,183.203568 7.078806,171.695633   C6.924229,159.032806 6.873981,146.363632 7.102508,133.703079   C7.240897,126.036201 10.718593,119.245262 17.576660,116.285881   C24.793978,113.171486 26.028828,107.964874 27.050310,101.406815   C32.903252,63.830135 52.595806,35.781815 86.094505,17.777685   C98.116646,11.316298 111.170845,8.047731 124.913254,6.881456   C151.731216,4.605501 176.179550,10.917230 198.117828,26.236132   C214.904007,37.957470 227.423813,53.321083 235.056335,72.567314   C239.571487,83.952797 242.978958,95.522766 244.082367,107.763374   C244.314453,110.338104 245.412888,112.346657 248.615234,113.451828   C256.058472,116.020599 261.208069,121.212181 262.987640,130.060028   C262.996552,143.862137 262.961334,156.820328 263.029175,169.777985   C263.038269,171.516052 263.567810,173.251373 263.856384,174.987976  z" />
<path fill="#3DCAE1" opacity="1.000000" stroke="none" d=" M161.292068,177.352310   C165.982758,161.781021 170.394745,146.550735 175.184723,131.440247   C175.759201,129.628006 178.378723,127.331467 180.063293,127.320915   C181.761368,127.310295 184.254929,129.538132 185.031311,131.366409   C187.072556,136.173309 188.769653,141.212708 189.835571,146.319855   C190.676544,150.349167 192.644272,151.409332 196.339966,151.063049   C198.816849,150.830963 201.482452,150.534500 203.783905,151.214096   C205.410553,151.694427 207.931198,154.207672 207.661774,155.030106   C207.037094,156.936981 205.144226,159.497101 203.440567,159.770935   C199.216980,160.449814 194.799286,160.196503 190.482483,159.936768   C186.709747,159.709763 184.012817,157.745163 182.927231,153.867218   C182.378799,151.908142 181.542236,150.029724 179.577820,148.091873   C177.382217,155.364777 175.199203,162.641525 172.988205,169.909760   C169.260315,182.164352 165.577972,194.433517 161.725861,206.649048   C160.902679,209.259460 159.851273,211.889801 155.963852,211.370056   C152.333954,210.884750 151.524551,208.555954 151.031784,205.602966   C146.371262,177.674789 141.692841,149.749573 136.980362,121.830124   C136.735840,120.381386 136.135498,118.992706 135.238937,116.070786   C133.018250,126.837097 131.050873,136.211548 129.156677,145.600769   C126.882996,156.871140 124.679588,168.155655 122.430016,179.430908   C121.307922,185.055054 120.443748,190.756500 118.863045,196.250397   C118.243912,198.402237 116.347954,200.977127 114.387665,201.777451   C110.988113,203.165375 109.280663,200.111343 108.374977,197.374237   C103.506050,182.659729 98.812241,167.887375 93.993530,153.156082   C92.364998,148.177475 90.547775,143.260590 88.372147,137.045273   C86.689339,142.496979 85.438492,146.713181 84.085999,150.896515   C81.345070,159.374390 73.944252,162.884995 65.813133,159.237289   C64.222664,158.523773 63.345436,156.220322 62.139240,154.650208   C63.739361,153.438965 65.527420,151.009872 66.907753,151.222870   C73.642151,152.262131 75.243210,148.628799 76.486115,143.063995   C78.026924,136.165405 80.356430,129.399597 82.909653,122.794601   C83.775803,120.553947 86.356766,118.976166 88.154114,117.095467   C90.071548,119.100182 92.955849,120.781281 93.752373,123.161156   C99.748718,141.077194 105.325401,159.133560 111.073769,177.133118   C111.363609,178.040695 112.027176,178.828903 113.090935,180.662384   C114.495972,174.053513 115.805222,168.350723 116.912056,162.608917   C121.341202,139.632339 125.681992,116.638687 130.129181,93.665619   C130.689514,90.771057 131.303223,87.340904 135.251114,87.481560   C138.785934,87.607491 140.462494,89.972969 141.046112,93.524086   C143.945419,111.165588 147.054276,128.772552 150.000443,146.406509   C152.117325,159.076859 154.069489,171.774719 156.174759,184.447083   C156.372757,185.638916 157.142242,186.735825 158.304077,189.365280   C159.480209,184.518173 160.303833,181.123810 161.292068,177.352310  z" />
<path fill="#3DCAE1" opacity="1.000000" stroke="none" d=" M126.565536,75.675232   C114.711212,67.338615 117.581284,49.656841 130.585098,45.746132   C136.719543,43.901287 143.966064,45.541389 147.801575,50.423073   C152.006805,55.775333 153.887634,61.991093 150.758865,68.402725   C147.856964,74.349464 143.141037,78.546883 135.871964,77.880455   C132.845001,77.602951 129.888824,76.553276 126.565536,75.675232  z" />
<path fill="#3DCAE1" opacity="1.000000" stroke="none" d=" M73.000481,93.989365   C73.406342,84.305679 79.426910,79.084206 88.734810,79.915382   C96.295288,80.590515 102.146332,88.414421 100.958305,96.260399   C100.070702,102.122314 92.561264,108.336395 86.776337,107.996017   C79.242874,107.552757 73.335190,101.729004 73.000481,93.989365  z" />
<path fill="#3DCAE0" opacity="1.000000" stroke="none" d=" M191.804428,112.713089   C187.662460,116.644440 183.261765,118.914619 177.815582,117.298111   C172.401031,115.690994 168.779587,112.403412 167.829773,106.412476   C166.982513,101.068626 169.638885,94.998360 174.816910,91.836754   C179.287949,89.106812 185.376862,89.645836 189.646118,93.149529   C195.940674,98.315338 196.754868,104.810600 191.804428,112.713089  z" />
<path fill="#309AA3" opacity="1.000000" stroke="none" d=" M263.921936,174.522522   C263.567810,173.251373 263.038269,171.516052 263.029175,169.777985   C262.961334,156.820328 262.996552,143.862137 263.030212,130.434631   C263.373413,131.470688 263.949432,132.974869 263.957184,134.481979   C264.024933,147.673386 263.991180,160.865295 263.921936,174.522522  z" />
</svg>